<svg width="46" height="46" viewBox="0 0 46 46" fill="none" xmlns="http://www.w3.org/2000/svg">
<rect x="6.5" y="6.5" width="33" height="33" rx="16.5" stroke="#E8E8E8"/>
<path fill-rule="evenodd" clip-rule="evenodd" d="M24.7929 24.2638C23.361 25.6957 21.0394 25.6957 19.6075 24.2638C18.1755 22.8319 18.1755 20.5103 19.6075 19.0783C21.0394 17.6464 23.361 17.6464 24.7929 19.0783C26.2248 20.5103 26.2248 22.8319 24.7929 24.2638ZM25.2333 25.6468C23.2731 27.1462 20.4575 26.9994 18.6647 25.2066C16.712 23.254 16.712 20.0882 18.6647 18.1355C20.6173 16.1829 23.7831 16.1829 25.7357 18.1355C27.5285 19.9283 27.6753 22.7437 26.1761 24.7039L29.7428 28.2706L28.8 29.2134L25.2333 25.6468Z" fill="black"/>
</svg>
